<svg width="194" height="230" viewBox="0 0 194 230" fill="none" xmlns="http://www.w3.org/2000/svg">
<path d="M197.606 161.093L114.542 225.071C113.054 226.217 111.143 226.687 109.23 226.378C107.316 226.069 105.556 225.007 104.337 223.424L16.2029 108.997C14.933 107.347 14.331 105.291 14.5293 103.28C14.7277 101.269 15.7102 99.4683 17.2608 98.274L99.8448 34.666C100.612 34.0743 101.497 33.6492 102.447 33.4151C103.397 33.1811 104.394 33.1426 105.382 33.3018C106.37 33.4611 107.329 33.815 108.204 34.3433C109.079 34.8716 109.854 35.564 110.483 36.3809L198.617 150.808C199.835 152.39 200.414 154.362 200.224 156.291C200.034 158.22 199.093 159.947 197.606 161.093Z" fill="#F8A00E"/>
<path d="M99.8448 34.666L17.2586 98.2757C15.708 99.47 14.7255 101.271 14.5271 103.281C14.3287 105.292 14.9307 107.349 16.2007 108.999L22.8095 117.579C21.4658 115.835 20.8286 113.66 21.038 111.533C21.2473 109.407 22.2862 107.502 23.926 106.239L105.842 43.1457C107.482 41.8827 109.589 41.3644 111.698 41.7049C113.808 42.0454 115.748 43.2167 117.092 44.9613L110.483 36.3809C109.854 35.564 109.079 34.8716 108.204 34.3433C107.329 33.815 106.37 33.4611 105.382 33.3018C104.394 33.1426 103.397 33.1811 102.447 33.4152C101.497 33.6492 100.612 34.0743 99.8448 34.666Z" fill="#FAA312"/>
<path d="M197.606 161.093L114.542 225.071C113.054 226.217 111.143 226.687 109.23 226.378C107.316 226.069 105.556 225.007 104.337 223.424L16.2029 108.997C14.933 107.347 14.331 105.291 14.5293 103.28C14.7277 101.269 15.7102 99.4683 17.2608 98.274L99.8448 34.666C100.612 34.0743 101.497 33.6492 102.447 33.4151C103.397 33.1811 104.394 33.1426 105.382 33.3018C106.37 33.4611 107.329 33.815 108.204 34.3433C109.079 34.8716 109.854 35.564 110.483 36.3809L198.617 150.808C199.835 152.39 200.414 154.362 200.224 156.291C200.034 158.22 199.093 159.947 197.606 161.093Z" stroke="#45413C" stroke-width="4" stroke-linecap="round" stroke-linejoin="round"/>
<path d="M28.2825 105.503L104.016 47.1715L186.337 154.051L110.603 212.383L28.2825 105.503Z" fill="white" stroke="#45413C" stroke-width="4" stroke-linecap="round" stroke-linejoin="round"/>
<path d="M59.3445 123.495L106.568 87.1221" stroke="#45413C" stroke-width="4" stroke-linecap="round" stroke-linejoin="round"/>
<path d="M70.7435 138.294L117.967 101.922" stroke="#45413C" stroke-width="4" stroke-linecap="round" stroke-linejoin="round"/>
<path d="M83.4084 154.738L116.321 129.387" stroke="#45413C" stroke-width="4" stroke-linecap="round" stroke-linejoin="round"/>
<path d="M33.5991 77.8288L75.9037 45.2449C76.6475 44.672 77.603 44.4369 78.5599 44.5914C79.5169 44.7458 80.3969 45.2771 81.0063 46.0685L92.8737 61.4761C93.4836 62.2681 93.7729 63.2553 93.6778 64.2207C93.5828 65.1862 93.1112 66.0506 92.3668 66.624L50.0666 99.2045C49.6983 99.4902 49.2735 99.6957 48.8168 99.8093C48.3601 99.9229 47.8804 99.9423 47.4051 99.8663C46.9299 99.7904 46.4685 99.6207 46.0474 99.3668C45.6262 99.113 45.2537 98.7801 44.951 98.3871L33.0837 82.9795C32.7813 82.5869 32.5547 82.142 32.4169 81.6704C32.2791 81.1988 32.2329 80.7097 32.2807 80.2313C32.3286 79.7528 32.4697 79.2942 32.696 78.882C32.9222 78.4697 33.2291 78.1118 33.5991 77.8288Z" fill="#E8F4FA"/>
<path d="M75.9015 45.2466L33.6014 77.8271C33.231 78.1103 32.9239 78.4685 32.6975 78.8811C32.4711 79.2937 32.3298 79.7526 32.2819 80.2314C32.234 80.7103 32.2803 81.1998 32.4182 81.6717C32.5561 82.1437 32.7829 82.5889 33.0856 82.9819L38.3916 89.8709C38.0589 89.4388 37.8093 88.9494 37.6573 88.4305C37.5052 87.9116 37.4537 87.3735 37.5055 86.8468C37.5574 86.3201 37.7117 85.8151 37.9595 85.3608C38.2074 84.9065 38.544 84.5116 38.9501 84.1988L80.6898 52.05C81.5101 51.4192 82.5633 51.1607 83.618 51.3313C84.6727 51.5019 85.6425 52.0877 86.3142 52.9599L81.0082 46.0708C80.7061 45.6787 80.3345 45.3463 79.9144 45.0927C79.4943 44.8391 79.034 44.6691 78.5598 44.5926C78.0856 44.516 77.6068 44.5344 77.1507 44.6466C76.6946 44.7589 76.2701 44.9627 75.9015 45.2466Z" fill="white"/>
<path d="M33.5991 77.8288L75.9037 45.2449C76.6475 44.672 77.603 44.4369 78.5599 44.5914C79.5169 44.7458 80.3969 45.2771 81.0063 46.0685L92.8737 61.4761C93.4836 62.2681 93.7729 63.2553 93.6778 64.2207C93.5828 65.1862 93.1112 66.0506 92.3668 66.624L50.0666 99.2045C49.6983 99.4902 49.2735 99.6957 48.8168 99.8093C48.3601 99.9229 47.8804 99.9423 47.4051 99.8663C46.9299 99.7904 46.4685 99.6207 46.0474 99.3668C45.6262 99.113 45.2537 98.7801 44.951 98.3871L33.0837 82.9795C32.7813 82.5869 32.5547 82.142 32.4169 81.6704C32.2791 81.1988 32.2329 80.7097 32.2807 80.2313C32.3286 79.7528 32.4697 79.2942 32.696 78.882C32.9222 78.4697 33.2291 78.1118 33.5991 77.8288Z" stroke="#45413C" stroke-width="4" stroke-linecap="round" stroke-linejoin="round"/>
<path d="M53.012 86.4559L79.2888 66.2169" stroke="#45413C" stroke-width="4" stroke-linecap="round" stroke-linejoin="round"/>
<path d="M46.5298 65.2503C47.3614 66.33 48.3847 67.2451 49.5414 67.9435C50.6981 68.6418 51.9654 69.1097 53.2711 69.3205C54.5767 69.5312 55.8951 69.4806 57.151 69.1716C58.4068 68.8626 59.5755 68.3013 60.5904 67.5196C61.6053 66.7379 62.4464 65.7513 63.0658 64.6159C63.6852 63.4806 64.0706 62.2188 64.2002 60.9026C64.3298 59.5864 64.201 58.2416 63.821 56.945C63.4411 55.6484 62.8176 54.4253 61.986 53.3456C61.1544 52.2659 60.131 51.3507 58.9743 50.6524C57.8177 49.954 56.5503 49.4861 55.2447 49.2754C53.939 49.0646 52.6207 49.1152 51.3648 49.4242C50.1089 49.7332 48.9402 50.2946 47.9253 51.0762C46.9105 51.8579 46.0693 52.8446 45.45 53.9799C44.8306 55.1153 44.4451 56.3771 44.3155 57.6932C44.1859 59.0094 44.3148 60.3542 44.6947 61.6509C45.0746 62.9475 45.6982 64.1706 46.5298 65.2503Z" fill="#E8F4FA"/>
<path d="M52.9918 57.6541C54.4952 56.4975 56.325 55.8326 58.2569 55.7409C60.1888 55.6493 62.1388 56.1347 63.8681 57.1379C63.4207 55.4887 62.5816 53.9545 61.4268 52.6739C60.272 51.3933 58.8378 50.4067 57.254 49.8035C55.6702 49.2002 53.9868 48.9993 52.356 49.2189C50.7251 49.4385 49.1983 50.0716 47.9137 51.0611C46.6291 52.0505 45.6271 53.3651 44.9984 54.8858C44.3698 56.4066 44.1342 58.0855 44.3132 59.7708C44.4921 61.4561 45.0798 63.0946 46.0231 64.5381C46.9664 65.9816 48.2356 67.1846 49.7159 68.0382C49.1875 66.1101 49.216 64.1007 49.7978 62.2563C50.3797 60.4118 51.4897 58.8124 52.9918 57.6541Z" fill="white"/>
<path d="M46.5298 65.2503C47.3614 66.33 48.3847 67.2451 49.5414 67.9435C50.6981 68.6418 51.9654 69.1097 53.2711 69.3205C54.5767 69.5312 55.8951 69.4806 57.151 69.1716C58.4068 68.8626 59.5755 68.3013 60.5904 67.5196C61.6053 66.7379 62.4464 65.7513 63.0658 64.6159C63.6852 63.4806 64.0706 62.2188 64.2002 60.9026C64.3298 59.5864 64.201 58.2416 63.821 56.945C63.4411 55.6484 62.8176 54.4253 61.986 53.3456C61.1544 52.2659 60.131 51.3507 58.9743 50.6524C57.8177 49.954 56.5503 49.4861 55.2447 49.2754C53.939 49.0646 52.6207 49.1152 51.3648 49.4242C50.1089 49.7332 48.9402 50.2946 47.9253 51.0762C46.9105 51.8579 46.0693 52.8446 45.45 53.9799C44.8306 55.1153 44.4451 56.3771 44.3155 57.6932C44.1859 59.0094 44.3148 60.3542 44.6947 61.6509C45.0746 62.9475 45.6982 64.1706 46.5298 65.2503V65.2503Z" stroke="#45413C" stroke-width="4" stroke-linecap="round" stroke-linejoin="round"/>
<path opacity="0.15" d="M132.221 83.7861L129.749 126.073C129.598 128.746 130.502 131.434 132.263 133.548C134.024 135.661 136.499 137.027 139.143 137.346C140.797 137.542 142.447 137.312 143.941 136.678L142.65 149.783L144.641 150.105L142.895 167.815C142.816 168.606 142.971 169.417 143.339 170.146C143.708 170.875 144.274 171.491 144.967 171.915C145.66 172.339 146.448 172.553 147.234 172.529C148.019 172.506 148.767 172.247 149.382 171.785C149.607 171.611 149.812 171.413 149.995 171.195C156.983 162.762 159.159 156.681 156.474 153.094L156.58 152.021L160.557 152.663L161.535 142.751C162.167 142.783 162.797 142.755 163.417 142.668C165.459 142.376 167.322 141.437 168.747 139.983C170.171 138.528 171.085 136.63 171.362 134.554L132.221 83.7861Z" fill="#45413C"/>
<path d="M142.23 107.801L177.579 97.6928L174 69.4899L138.048 83.7073L142.23 107.801Z" fill="#FFBE3D"/>
<path d="M210.652 107.353L214.438 68.898C214.454 68.7501 214.479 68.6041 214.514 68.461C202.505 67.386 190.211 55.009 170.93 57.8923C145.559 61.7084 125.395 80.9891 125.846 121.499C125.917 123.256 126.657 124.956 127.91 126.241C129.162 127.527 130.829 128.297 132.558 128.389C134.287 128.481 135.944 127.888 137.178 126.735C138.413 125.582 139.128 123.959 139.175 122.209C139.155 119.541 139.235 116.989 139.392 114.532C140.242 114.699 141.106 114.698 141.936 114.529C174.663 115.241 180.325 114.172 186.855 112.406C196.927 109.681 201.476 108.608 211.258 109.692C210.786 108.996 210.571 108.165 210.652 107.353ZM170.064 83.2933C170.047 86.7938 168.824 90.1049 166.606 92.654C164.389 95.2031 161.316 96.83 157.919 97.2532L141.5 100.627C144.288 89.8317 149.575 82.1521 157.328 77.7285C163.921 73.9643 169.619 78.5077 170.063 83.2786L170.064 83.2933Z" fill="#FFDA8F"/>
<path d="M213.738 75.9097L214.431 68.8885C214.446 68.7406 214.472 68.5946 214.507 68.4515C202.498 67.3765 190.204 54.9995 170.923 57.8828C145.551 61.6989 125.388 80.9796 125.838 121.49C125.854 123.041 126.392 124.572 127.364 125.828C128.336 127.084 129.683 127.989 131.18 128.393C131.097 127.976 131.051 127.555 131.044 127.135C130.587 86.6115 149.47 69.4749 174.744 65.2041C183.143 63.7804 202.644 72.559 213.738 75.9097Z" fill="#FFE9BD"/>
<path d="M157.218 99.8297C157.924 99.3477 158.725 99.0178 159.576 98.8586C160.426 98.6995 161.309 98.7143 162.175 98.9023C163.04 99.0902 163.871 99.4476 164.619 99.954C165.367 100.46 166.019 101.106 166.536 101.854L179.352 120.368C180.397 121.878 180.833 123.713 180.563 125.468C180.293 127.224 179.341 128.757 177.914 129.73C176.488 130.703 174.705 131.037 172.958 130.657C171.21 130.278 169.641 129.216 168.596 127.706L155.78 109.192C154.736 107.682 154.3 105.847 154.57 104.092C154.84 102.336 155.792 100.803 157.218 99.8297Z" fill="#FFBE3D" stroke="#45413C" stroke-width="4" stroke-linecap="round" stroke-linejoin="round"/>
<path d="M150.573 102.223C152.307 101.977 154.107 102.448 155.578 103.533C157.049 104.617 158.07 106.226 158.417 108.005L162.075 125.489C162.381 127.249 162.002 129.02 161.019 130.422C160.036 131.824 158.527 132.745 156.816 132.987C155.105 133.23 153.329 132.775 151.868 131.72C150.406 130.665 149.376 129.094 148.999 127.343L145.341 109.859C145.169 108.978 145.168 108.082 145.338 107.221C145.508 106.36 145.846 105.552 146.332 104.843C146.818 104.134 147.442 103.538 148.17 103.088C148.898 102.638 149.714 102.344 150.573 102.223Z" fill="#FFBE3D" stroke="#45413C" stroke-width="4" stroke-linecap="round" stroke-linejoin="round"/>
<path d="M214.431 68.8885C214.446 68.7406 214.472 68.5946 214.507 68.4515C202.498 67.3765 190.204 54.9995 170.923 57.8828C145.551 61.6989 125.388 80.9796 125.838 121.49C125.91 123.246 126.65 124.947 127.902 126.232C129.155 127.517 130.821 128.287 132.551 128.379C134.28 128.471 135.936 127.878 137.171 126.725C138.405 125.572 139.121 123.95 139.167 122.199C139.147 119.531 139.227 116.979 139.385 114.523C140.235 114.689 141.099 114.688 141.929 114.52C174.656 115.231 180.318 114.163 186.848 112.396C196.92 109.672 201.469 108.598 211.25 109.682C210.776 108.986 210.56 108.153 210.641 107.339L214.431 68.8885ZM170.053 83.2791C170.04 86.7805 168.82 90.0937 166.604 92.6456C164.388 95.1974 161.316 96.8273 157.92 97.2532L141.5 100.627C144.288 89.8317 149.576 82.1521 157.328 77.7286C163.921 73.9644 169.619 78.5077 170.063 83.2787L170.053 83.2791Z" stroke="#45413C" stroke-width="4" stroke-linecap="round" stroke-linejoin="round"/>
<path d="M166.437 87.8087L151.964 82.9162L160.712 50.9718C160.947 50.112 161.35 49.3179 161.897 48.6349C162.444 47.9519 163.125 47.3933 163.901 46.9912C164.677 46.589 165.532 46.3511 166.418 46.2911C167.305 46.231 168.205 46.35 169.066 46.6412L170.413 47.0956C171.275 47.3867 172.082 47.8442 172.788 48.4422C173.494 49.0402 174.085 49.767 174.528 50.5808C174.971 51.3947 175.257 52.2798 175.369 53.1855C175.481 54.0913 175.417 54.9999 175.181 55.8596L166.437 87.8087Z" fill="#FF6242"/>
<path d="M169.836 46.9152C169.802 46.9035 169.777 46.8849 169.743 46.8732C168.795 46.4566 167.781 46.2518 166.772 46.2732C165.763 46.2946 164.785 46.5417 163.906 46.997C163.027 47.4523 162.269 48.1047 161.685 48.908C161.102 49.7113 160.708 50.6459 160.53 51.6455L151.964 82.9162L158.954 85.2759L169.836 46.9152Z" fill="#FF866E"/>
<path d="M166.437 87.8087L151.964 82.9162L160.712 50.9718C160.947 50.112 161.35 49.3179 161.897 48.6349C162.444 47.9519 163.125 47.3933 163.901 46.9912C164.677 46.589 165.532 46.3511 166.418 46.2911C167.305 46.231 168.205 46.35 169.066 46.6412L170.413 47.0956C171.275 47.3867 172.082 47.8442 172.788 48.4422C173.494 49.0402 174.085 49.767 174.528 50.5808C174.971 51.3947 175.257 52.2798 175.369 53.1855C175.481 54.0913 175.417 54.9999 175.181 55.8596L166.437 87.8087Z" stroke="#45413C" stroke-width="4" stroke-linecap="round" stroke-linejoin="round"/>
<path d="M148.461 76.4783L154.608 54.0265C154.77 53.3869 155.059 52.7948 155.459 52.2857C155.858 51.7766 156.36 51.3609 156.934 51.0637C157.507 50.7664 158.141 50.5936 158.797 50.5557C159.453 50.5178 160.118 50.6155 160.752 50.843" stroke="#45413C" stroke-width="4" stroke-linecap="round" stroke-linejoin="round"/>
<path d="M140.801 136.519L136.481 152.295C136.384 152.64 136.402 153.014 136.531 153.361C136.66 153.708 136.894 154.011 137.198 154.223C137.502 154.435 137.859 154.546 138.217 154.539C138.575 154.532 138.914 154.407 139.184 154.183C143.371 150.655 148.921 145.048 146.355 141.9L147.232 138.693L140.801 136.519Z" fill="#FFE500" stroke="#45413C" stroke-width="4" stroke-linecap="round" stroke-linejoin="round"/>
<path d="M148.84 139.233L140.801 136.519C140.379 136.374 140.02 136.068 139.803 135.668C139.586 135.269 139.528 134.807 139.641 134.385L141.838 126.364L153.101 130.179L150.906 138.198C150.846 138.408 150.745 138.602 150.608 138.768C150.471 138.934 150.302 139.068 150.11 139.165C149.918 139.261 149.707 139.316 149.489 139.328C149.271 139.34 149.051 139.308 148.84 139.233Z" fill="#DAEDF7"/>
<path d="M146.832 128.044L141.827 126.354L139.632 134.373C139.518 134.796 139.577 135.257 139.794 135.656C140.011 136.056 140.37 136.362 140.792 136.507L144.105 137.626L146.832 128.044Z" fill="#E8F4FA"/>
<path d="M148.84 139.233L140.801 136.519C140.379 136.374 140.02 136.068 139.803 135.668C139.586 135.269 139.528 134.807 139.641 134.385L141.838 126.364L153.101 130.179L150.906 138.198C150.846 138.408 150.745 138.602 150.608 138.768C150.471 138.934 150.302 139.068 150.11 139.165C149.918 139.261 149.707 139.316 149.489 139.328C149.271 139.34 149.051 139.308 148.84 139.233V139.233Z" stroke="#45413C" stroke-width="4" stroke-linecap="round" stroke-linejoin="round"/>
<path d="M151.475 129.611L143.437 126.897C142.584 126.608 141.859 125.994 141.421 125.189C140.983 124.384 140.867 123.453 141.1 122.603L151.964 82.9162L166.434 87.804L155.57 127.491C155.336 128.341 154.774 129.042 154.006 129.44C153.238 129.837 152.328 129.899 151.475 129.611Z" fill="#FF6242"/>
<path d="M146.832 128.044L158.958 85.2806L151.964 82.9162L141.1 122.603C140.985 123.024 140.953 123.469 141.008 123.913C141.063 124.357 141.203 124.791 141.42 125.189C141.637 125.588 141.927 125.944 142.273 126.237C142.619 126.53 143.014 126.754 143.437 126.897L146.832 128.044Z" fill="#FF866E"/>
<path d="M151.475 129.611L143.437 126.897C142.584 126.608 141.859 125.994 141.421 125.189C140.983 124.384 140.867 123.453 141.1 122.603L151.964 82.9162L166.434 87.804L155.57 127.491C155.336 128.341 154.774 129.042 154.006 129.44C153.238 129.837 152.328 129.899 151.475 129.611V129.611Z" stroke="#45413C" stroke-width="4" stroke-linecap="round" stroke-linejoin="round"/>
<path d="M170.063 83.2787C170.05 86.7817 168.828 90.0964 166.611 92.6485C164.393 95.2006 161.318 96.8296 157.919 97.2532L138.539 101.254C137.675 101.412 136.861 101.745 136.146 102.235C135.43 102.724 134.826 103.36 134.371 104.105C133.915 104.851 133.616 105.69 133.491 106.574C133.366 107.458 133.418 108.369 133.644 109.254C133.87 110.138 134.266 110.979 134.807 111.726C135.348 112.472 136.025 113.111 136.797 113.603C137.569 114.095 138.42 114.431 139.302 114.591C140.184 114.752 141.078 114.733 141.932 114.537C174.658 115.249 180.32 114.18 186.85 112.413" fill="#FFCEBF"/>
<path d="M145.692 107.197L165.073 103.196C166.787 102.892 168.381 102.175 169.725 101.103C171.069 100.032 172.125 98.6367 172.807 97.0318C173.488 95.4269 173.775 93.6578 173.645 91.8693C173.515 90.0809 172.971 88.3238 172.058 86.7418L170.059 83.2739C170.047 86.7773 168.827 90.0926 166.61 92.6456C164.393 95.1987 161.318 96.8286 157.919 97.2532L138.539 101.254C136.922 101.589 135.526 102.537 134.626 103.911C133.727 105.285 133.39 106.984 133.682 108.671C133.975 110.358 134.875 111.909 136.206 113.016C137.536 114.124 139.198 114.707 140.862 114.649C140.554 112.96 140.881 111.252 141.777 109.87C142.673 108.488 144.071 107.533 145.692 107.197Z" fill="#FFDCD1"/>
<path d="M170.063 83.2787C170.05 86.7817 168.828 90.0964 166.611 92.6485C164.393 95.2006 161.318 96.8296 157.919 97.2532L138.539 101.254C137.675 101.412 136.861 101.745 136.146 102.235C135.43 102.724 134.826 103.36 134.371 104.105C133.915 104.851 133.616 105.69 133.491 106.574C133.366 107.458 133.418 108.369 133.644 109.254C133.87 110.138 134.266 110.979 134.807 111.726C135.348 112.472 136.025 113.111 136.797 113.603C137.569 114.095 138.42 114.431 139.302 114.591C140.184 114.752 141.078 114.733 141.932 114.537C174.658 115.249 180.32 114.18 186.85 112.413" stroke="#45413C" stroke-width="4" stroke-linecap="round" stroke-linejoin="round"/>
<g filter="url(#filter0_f_74_310)">
<path d="M107.208 174.784C107.265 174.82 107.314 174.863 107.355 174.913C107.397 174.947 107.43 174.989 107.456 175.037C107.483 175.07 107.504 175.121 107.52 175.191C107.544 175.254 107.564 175.313 107.582 175.368C107.592 175.414 107.604 175.488 107.616 175.587C107.629 175.687 107.636 175.771 107.636 175.84C107.645 175.901 107.654 176.004 107.662 176.149C107.723 177.05 107.811 177.597 107.928 177.791C108.092 177.822 108.228 177.904 108.336 178.037C108.444 178.169 108.497 178.318 108.495 178.485C108.497 178.69 108.431 178.861 108.295 178.999C108.153 179.129 107.984 179.191 107.788 179.187C107.128 179.188 106.684 178.745 106.455 177.858C106.429 177.742 106.403 177.618 106.378 177.487C106.309 177.722 106.249 177.978 106.199 178.253C105.937 179.5 105.803 180.897 105.799 182.443C105.796 182.473 105.796 182.507 105.8 182.545C105.807 182.773 105.815 182.96 105.823 183.105C105.825 183.461 105.739 183.71 105.566 183.852C105.508 183.899 105.443 183.938 105.372 183.969C105.206 184.036 105.043 184.038 104.882 183.976C104.707 183.913 104.574 183.801 104.484 183.641C104.433 183.544 104.405 183.443 104.401 183.337C104.4 183.048 104.395 182.756 104.387 182.46C104.269 179.954 104.064 178.151 103.773 177.053C103.731 176.867 103.76 176.692 103.86 176.527C103.953 176.355 104.093 176.248 104.279 176.206C104.467 176.149 104.643 176.171 104.807 176.271C104.979 176.364 105.09 176.508 105.139 176.702L105.149 176.714C105.519 175.599 105.984 174.93 106.545 174.706C106.781 174.624 107.002 174.65 107.208 174.784ZM114.789 170.287C114.925 170.149 115.087 170.078 115.277 170.074C115.475 170.064 115.643 170.126 115.781 170.262C115.927 170.39 116.006 170.553 116.016 170.752C116.029 171.374 116.007 171.971 115.949 172.541C115.9 173.105 115.823 173.609 115.717 174.053C115.605 174.489 115.473 174.893 115.322 175.264C115.172 175.62 115.009 175.926 114.832 176.181C114.662 176.429 114.483 176.631 114.293 176.786C114.161 176.894 114.027 176.976 113.893 177.03C113.568 177.172 113.26 177.141 112.97 176.937C112.701 176.743 112.488 176.381 112.329 175.849C112.274 176.101 112.219 176.346 112.164 176.583C112.028 177.107 111.904 177.546 111.793 177.899C111.675 178.243 111.541 178.552 111.392 178.825C111.252 179.091 111.1 179.284 110.936 179.404C110.757 179.523 110.559 179.575 110.34 179.56C109.97 179.546 109.641 179.387 109.353 179.085C109.065 178.783 108.842 178.367 108.683 177.835C108.523 177.319 108.443 176.757 108.444 176.151C108.438 175.536 108.511 174.926 108.663 174.319C108.815 173.713 109.067 173.128 109.42 172.565C109.774 171.987 110.213 171.504 110.737 171.117C110.983 170.93 111.251 170.87 111.54 170.937C111.645 170.947 111.744 170.984 111.836 171.046C111.895 170.764 111.94 170.575 111.973 170.48C112.028 170.311 112.131 170.185 112.284 170.102C112.438 170.004 112.604 169.971 112.782 170.005C112.954 170.03 113.093 170.116 113.2 170.263C113.308 170.395 113.36 170.552 113.357 170.733C113.299 171.607 113.302 172.487 113.364 173.372C113.434 174.251 113.536 174.932 113.669 175.416C113.937 175.018 114.167 174.431 114.359 173.655C114.551 172.878 114.632 171.923 114.602 170.791C114.592 170.593 114.654 170.425 114.789 170.287ZM110.902 175.796C111.087 175.011 111.301 173.983 111.543 172.711C111.436 172.647 111.352 172.57 111.293 172.481C110.709 173.013 110.305 173.674 110.081 174.462C109.866 175.244 109.802 175.992 109.889 176.706C109.949 177.235 110.074 177.649 110.264 177.949C110.451 177.521 110.664 176.803 110.902 175.796ZM119.626 166.316C119.754 166.17 119.917 166.099 120.113 166.104C120.312 166.093 120.48 166.156 120.618 166.291C120.764 166.419 120.839 166.579 120.842 166.769C120.938 169.651 120.503 171.487 119.536 172.277C119.379 172.405 119.206 172.505 119.017 172.577C118.163 172.93 117.171 172.694 116.041 171.867C116.071 172.545 116.1 173.128 116.126 173.616C116.153 174.104 116.173 174.5 116.188 174.805C116.209 175.049 116.124 175.249 115.934 175.404C115.819 175.499 115.681 175.549 115.521 175.556C115.338 175.568 115.173 175.51 115.027 175.381C114.881 175.253 114.798 175.093 114.78 174.901C114.739 174.177 114.653 172.368 114.52 169.474C114.379 166.367 114.295 164.713 114.27 164.514C114.243 164.329 114.283 164.159 114.39 164.003C114.496 163.847 114.646 163.752 114.839 163.718C115.025 163.676 115.2 163.713 115.363 163.828C115.519 163.934 115.617 164.081 115.659 164.267C115.688 164.437 115.773 166.068 115.916 169.16C116.649 168.354 117.028 167.419 117.052 166.352C117.057 166.155 117.13 165.992 117.272 165.863C117.414 165.733 117.584 165.67 117.78 165.675C117.97 165.671 118.133 165.745 118.27 165.895C118.408 166.03 118.474 166.196 118.47 166.393C118.424 167.972 117.793 169.342 116.577 170.5C116.92 170.785 117.269 171.01 117.623 171.174C117.978 171.339 118.263 171.375 118.477 171.283C118.525 171.258 118.573 171.232 118.621 171.207C118.67 171.166 118.73 171.096 118.801 170.997C118.872 170.898 118.936 170.784 118.995 170.653C119.062 170.516 119.126 170.333 119.187 170.104C119.256 169.868 119.309 169.604 119.346 169.313C119.383 169.021 119.412 168.66 119.433 168.23C119.453 167.8 119.455 167.33 119.439 166.82C119.428 166.622 119.491 166.454 119.626 166.316ZM125.481 161.431C125.625 161.286 125.795 161.216 125.991 161.221C126.181 161.217 126.345 161.283 126.483 161.418C126.621 161.553 126.695 161.72 126.705 161.918C126.724 163.391 126.428 164.858 125.818 166.32C125.201 167.774 124.582 168.542 123.96 168.623C123.737 168.653 123.534 168.591 123.353 168.437C123.165 168.274 123.044 168 122.992 167.616C122.94 167.231 122.905 166.455 122.886 165.285C122.876 164.481 122.86 163.888 122.838 163.506C122.344 164.351 121.927 165.477 121.588 166.883C121.25 168.274 121.049 169.637 120.982 170.972C120.976 171.184 120.89 171.357 120.725 171.492C120.601 171.593 120.456 171.643 120.289 171.641C120.099 171.645 119.939 171.583 119.807 171.456C119.668 171.336 119.592 171.184 119.58 171.001C119.444 169.35 119.348 167.066 119.294 164.15C119.29 163.96 119.356 163.796 119.491 163.658C119.62 163.512 119.782 163.441 119.979 163.445C120.177 163.435 120.345 163.498 120.483 163.633C120.629 163.761 120.7 163.924 120.695 164.12C120.704 164.265 120.71 164.501 120.715 164.827C121.239 163.311 121.861 162.225 122.579 161.57C122.871 161.304 123.18 161.244 123.507 161.391C123.841 161.531 124.051 161.855 124.136 162.364C124.223 162.858 124.277 163.826 124.298 165.268C124.302 165.678 124.308 165.997 124.315 166.225C124.594 165.639 124.828 164.973 125.017 164.227C125.214 163.473 125.307 162.709 125.294 161.935C125.283 161.737 125.346 161.569 125.481 161.431ZM131.756 156.43C131.891 156.292 132.054 156.221 132.244 156.217C132.442 156.207 132.61 156.269 132.748 156.405C132.894 156.533 132.972 156.696 132.983 156.895C132.996 157.518 132.973 158.114 132.916 158.684C132.867 159.248 132.789 159.752 132.684 160.196C132.572 160.632 132.44 161.036 132.289 161.407C132.139 161.763 131.976 162.069 131.798 162.324C131.629 162.572 131.45 162.774 131.26 162.929C131.127 163.037 130.994 163.119 130.86 163.173C130.535 163.315 130.227 163.284 129.937 163.08C129.668 162.886 129.455 162.524 129.296 161.992C129.24 162.244 129.185 162.489 129.131 162.726C128.995 163.25 128.871 163.689 128.759 164.042C128.641 164.386 128.508 164.695 128.359 164.968C128.218 165.234 128.066 165.427 127.903 165.547C127.724 165.666 127.525 165.718 127.307 165.703C126.937 165.689 126.608 165.53 126.32 165.228C126.032 164.926 125.809 164.51 125.65 163.978C125.49 163.462 125.41 162.9 125.411 162.294C125.404 161.679 125.477 161.069 125.63 160.462C125.782 159.856 126.034 159.271 126.387 158.708C126.741 158.13 127.18 157.647 127.704 157.26C127.95 157.073 128.218 157.013 128.507 157.08C128.612 157.09 128.71 157.127 128.803 157.189C128.861 156.907 128.907 156.718 128.939 156.623C128.994 156.454 129.098 156.328 129.25 156.245C129.404 156.147 129.571 156.114 129.749 156.148C129.921 156.173 130.06 156.259 130.167 156.406C130.275 156.538 130.327 156.695 130.324 156.876C130.266 157.75 130.268 158.63 130.33 159.515C130.401 160.394 130.503 161.075 130.636 161.559C130.904 161.161 131.133 160.574 131.325 159.798C131.517 159.021 131.599 158.066 131.569 156.934C131.558 156.736 131.621 156.568 131.756 156.43ZM127.869 161.939C128.054 161.154 128.268 160.126 128.51 158.854C128.402 158.79 128.319 158.713 128.26 158.624C127.675 159.156 127.272 159.817 127.048 160.605C126.833 161.387 126.769 162.135 126.856 162.849C126.916 163.378 127.041 163.793 127.231 164.092C127.418 163.664 127.63 162.946 127.869 161.939Z" fill="#45413C"/>
</g>
<path d="M170.063 83.2787C170.05 86.7817 168.828 90.0964 166.611 92.6485C164.393 95.2006 161.318 96.8296 157.919 97.2532L138.539 101.254C137.675 101.412 136.861 101.745 136.146 102.235C135.43 102.724 134.826 103.36 134.371 104.105C133.915 104.851 133.616 105.69 133.491 106.574C133.366 107.458 133.418 108.369 133.644 109.254C133.87 110.138 134.266 110.979 134.807 111.726C135.348 112.472 136.025 113.111 136.797 113.603C137.569 114.095 138.42 114.431 139.302 114.591C140.184 114.752 141.078 114.733 141.932 114.537C174.658 115.249 180.32 114.18 186.85 112.413" fill="#FFDA8F"/>
<path d="M145.692 107.197L165.073 103.196C166.787 102.892 168.381 102.175 169.725 101.103C171.069 100.032 172.125 98.6367 172.807 97.0318C173.488 95.4269 173.775 93.6578 173.645 91.8693C173.515 90.0809 172.971 88.3238 172.058 86.7418L170.059 83.2739C170.047 86.7773 168.827 90.0926 166.61 92.6456C164.393 95.1987 161.318 96.8286 157.919 97.2532L138.539 101.254C136.922 101.589 135.526 102.537 134.626 103.911C133.727 105.285 133.39 106.984 133.682 108.671C133.975 110.358 134.875 111.909 136.206 113.016C137.536 114.124 139.198 114.707 140.862 114.649C140.554 112.96 140.881 111.252 141.777 109.87C142.673 108.488 144.071 107.533 145.692 107.197Z" fill="#FFE9BD"/>
<path d="M170.063 83.2787C170.05 86.7817 168.828 90.0964 166.611 92.6485C164.393 95.2006 161.318 96.8296 157.919 97.2532L138.539 101.254C137.675 101.412 136.861 101.745 136.146 102.235C135.43 102.724 134.826 103.36 134.371 104.105C133.915 104.851 133.616 105.69 133.491 106.574C133.366 107.458 133.418 108.369 133.644 109.254C133.87 110.138 134.266 110.979 134.807 111.726C135.348 112.472 136.025 113.111 136.797 113.603C137.569 114.095 138.42 114.431 139.302 114.591C140.184 114.752 141.078 114.733 141.932 114.537C174.658 115.249 180.32 114.18 186.85 112.413" stroke="#45413C" stroke-width="4" stroke-linecap="round" stroke-linejoin="round"/>
<defs>
<filter id="filter0_f_74_310" x="97.9386" y="151.076" width="38.4297" height="34.312" filterUnits="userSpaceOnUse" color-interpolation-filters="sRGB">
<feFlood flood-opacity="0" result="BackgroundImageFix"/>
<feBlend mode="normal" in="SourceGraphic" in2="BackgroundImageFix" result="shape"/>
<feGaussianBlur stdDeviation="0.4" result="effect1_foregroundBlur_74_310"/>
</filter>
</defs>
</svg>
